<?xml version="1.0" encoding="UTF-8"?>
<svg version="1.1" xmlns="http://www.w3.org/2000/svg" width="512" height="512">
<path d="M0 0 C7.49836249 6.59383013 12.69948134 15.02768098 17.9375 23.4375 C19.17586186 25.4044154 20.41544743 27.37056088 21.65625 29.3359375 C22.25308594 30.28178711 22.84992188 31.22763672 23.46484375 32.20214844 C25.57572463 35.52119821 27.74065513 38.79992948 29.9375 42.0625 C36.29555314 51.51816887 42.50252841 61.07300869 48.73069763 70.61445618 C51.35551506 74.63537241 53.98348357 78.65421449 56.61328125 82.671875 C64.48387566 94.6973386 72.33615271 106.7338988 80.125 118.8125 C83.8409635 117.41089424 87.24462329 115.72831295 90.7109375 113.79296875 C91.79584473 113.18880127 92.88075195 112.58463379 93.99853516 111.9621582 C95.16570366 111.30812966 96.33285829 110.65407636 97.5 110 C98.70478265 109.32813111 99.90969968 108.65650313 101.11474609 107.98510742 C106.99255066 104.70635104 112.85582586 101.40323742 118.703125 98.0703125 C120.23573975 97.19789917 120.23573975 97.19789917 121.79931641 96.30786133 C123.71018318 95.218038 125.61886323 94.12436783 127.52490234 93.02612305 C139.37847333 86.25938979 149.81110538 81.61817518 163.625 85 C168.7505131 86.50499831 172.82360652 88.6851107 177.125 91.8125 C177.99125 92.39 178.8575 92.9675 179.75 93.5625 C187.28969561 100.70536952 190.82129807 109.46470266 191.31381226 119.75894165 C191.27655152 125.58946296 189.93555877 131.00040296 188.54931641 136.63818359 C188.27931635 137.7702442 188.00931629 138.9023048 187.73113441 140.06867027 C186.87307749 143.6526136 186.00019626 147.2327074 185.125 150.8125 C184.57980477 153.06561329 184.03493862 155.31880623 183.49041748 157.57208252 C181.7894319 164.58615669 180.06354024 171.59400566 178.3359375 178.6015625 C177.70375479 181.17162377 177.07171389 183.74171953 176.43984985 186.31185913 C175.12843462 191.64489238 173.81569777 196.97759871 172.50195312 202.31005859 C170.66214161 209.77782205 168.82483569 217.24620033 166.98799205 224.71469426 C165.54196096 230.59377019 164.09523713 236.47267567 162.6484375 242.3515625 C162.34707256 243.57613789 162.04570763 244.80071327 161.73521042 246.062397 C161.44170322 247.25478359 161.14819603 248.44717018 160.84579468 249.6756897 C160.56103586 250.83285177 160.27627705 251.99001385 159.98288918 253.18224144 C159.4341163 255.40805137 158.88375544 257.63347053 158.33164024 259.85845375 C157.18082121 264.49789668 156.04121152 269.13746597 154.97247314 273.79656982 C154.79947001 274.53445929 154.62646687 275.27234875 154.44822121 276.0325985 C154.01072184 277.90537216 153.58533199 279.78096434 153.1612854 281.65682983 C151.46257488 286.82970028 148.80473991 290.94427231 144.125 293.8125 C141.02600374 294.84549875 138.89885219 294.93984555 135.65011883 294.94392776 C134.50529213 294.94776891 133.36046543 294.95161005 132.18094701 294.9555676 C130.28584731 294.95426787 130.28584731 294.95426787 128.35246277 294.95294189 C127.00121438 294.955525 125.64996675 294.95853801 124.29872018 294.9619453 C120.57736187 294.97002494 116.85602283 294.9718054 113.13465679 294.97254276 C109.12432707 294.97439163 105.1140074 294.98193811 101.10368347 294.98867798 C92.33101214 295.00226848 83.55834538 295.00828708 74.78566527 295.01268864 C69.30987625 295.01544974 63.83408899 295.01968684 58.35830116 295.02419281 C43.20280537 295.03638621 28.04731101 295.04668552 12.89181042 295.0500679 C11.92154866 295.05028747 10.95128691 295.05050703 9.95162328 295.05073325 C8.9790174 295.05095153 8.00641151 295.05116981 7.00433272 295.0513947 C5.03340606 295.05183817 3.0624794 295.05228473 1.09155273 295.05273438 C-0.37492418 295.05306652 -0.37492418 295.05306652 -1.8710269 295.05340537 C-17.71626036 295.05735428 -33.56144787 295.07481082 -49.40666357 295.0980939 C-65.6676678 295.12179544 -81.92864896 295.1342692 -98.18967074 295.13543582 C-107.3224902 295.13635323 -116.45524977 295.14212225 -125.58805275 295.16025543 C-133.36413147 295.17564024 -141.1401318 295.18078646 -148.91622285 295.17251733 C-152.88454326 295.16860512 -156.85270571 295.16956815 -160.82100677 295.18357468 C-164.45367379 295.19627944 -168.08606361 295.19514647 -171.71873005 295.18298396 C-173.65573663 295.18009092 -175.59274785 295.19198865 -177.52971679 295.20440602 C-184.67096736 295.1635786 -189.71969954 294.87764902 -195.0625 289.6875 C-200.24108362 281.47319494 -201.68574432 270.82106476 -203.9453125 261.45703125 C-204.34305433 259.82143023 -204.7411447 258.18591393 -205.13955688 256.55047607 C-206.20927674 252.15502201 -207.27426133 247.75843487 -208.33787537 243.36149979 C-209.67320403 237.84271009 -211.01193661 232.32474504 -212.35009766 226.80664158 C-212.57459595 225.88088794 -212.79909424 224.9551343 -213.03039551 224.00132751 C-213.25568436 223.07236097 -213.48097321 222.14339443 -213.71308899 221.18627739 C-214.40156783 218.34646311 -215.08940484 215.50649385 -215.77722168 212.66651917 C-218.60562188 200.99572677 -221.46933936 189.33419777 -224.36256027 177.67931557 C-225.55645577 172.86449138 -226.74360754 168.04799974 -227.93057442 163.23146343 C-228.86397341 159.44654493 -229.80196161 155.66288721 -230.75054932 151.88174438 C-231.63653221 148.3499469 -232.51057355 144.815402 -233.37586594 141.27848053 C-233.83979493 139.39586197 -234.31654613 137.51641718 -234.79385376 135.637146 C-237.85922177 123.01196918 -238.17281058 111.76113342 -231.3671875 100.265625 C-225.03857254 91.4938703 -216.64313621 86.94873746 -206.375 84.125 C-195.96531155 82.82378894 -187.40100723 85.06119084 -178.3125 90.0625 C-177.51094482 90.49361084 -176.70938965 90.92472168 -175.88354492 91.36889648 C-167.00831228 96.19156552 -158.31117645 101.32921012 -149.60546875 106.44921875 C-144.59049338 109.39807438 -139.56030655 112.31711611 -134.5 115.1875 C-133.84620361 115.56269775 -133.19240723 115.93789551 -132.51879883 116.32446289 C-129.39247204 118.21208575 -129.39247204 118.21208575 -125.875 118.8125 C-124.26129476 116.55394179 -122.77778454 114.2911833 -121.3125 111.9375 C-120.31476883 110.36527151 -119.31600357 108.79369894 -118.31640625 107.22265625 C-117.76742676 106.35656738 -117.21844727 105.49047852 -116.65283203 104.59814453 C-113.39598383 99.49506324 -110.06864945 94.43801433 -106.75 89.375 C-105.64979155 87.69413196 -104.54994286 86.0130289 -103.45011902 84.33190918 C-102.33250004 82.62365217 -101.21461333 80.91557062 -100.09667969 79.20751953 C-97.22493295 74.81950936 -94.3552362 70.43015929 -91.4855957 66.04077148 C-90.07803876 63.88783621 -88.6703238 61.73500424 -87.26245117 59.58227539 C-83.28655664 53.50270871 -79.31348288 47.42131822 -75.34413147 41.33747864 C-72.84406286 37.50667522 -70.3371521 33.68040891 -67.828125 29.85546875 C-65.33818892 26.05873642 -62.86912574 22.25014596 -60.421875 18.42578125 C-59.3855764 16.82541739 -58.34912905 15.22514983 -57.3125 13.625 C-56.87252686 12.92503906 -56.43255371 12.22507812 -55.97924805 11.50390625 C-49.84144586 2.10348113 -41.03903445 -4.50683245 -29.98828125 -6.8671875 C-19.40083708 -8.47193874 -8.73820604 -6.40107087 0 0 Z M-26.375 26.11328125 C-31.61760914 33.14438465 -36.21028619 40.56926255 -40.8515625 48.00390625 C-43.35629827 52.0072488 -45.92532555 55.95795428 -48.5625 59.875 C-53.07628583 66.58902424 -57.51359289 73.35143694 -61.9375 80.125 C-62.30007904 80.68011261 -62.66265808 81.23522522 -63.03622437 81.80715942 C-64.90360636 84.6662712 -66.77053271 87.52568006 -68.63720703 90.38525391 C-72.91190362 96.93304945 -77.19235032 103.47709245 -81.47412109 110.02026367 C-84.77055645 115.05883876 -88.06370901 120.0994553 -91.34408569 125.14849854 C-92.87935291 127.5110469 -94.4166529 129.87226926 -95.95410156 132.23339844 C-97.02736557 133.88348274 -98.09771707 135.5354603 -99.16796875 137.1875 C-110.27458326 154.23788868 -110.27458326 154.23788868 -116.5546875 156.53515625 C-123.49334678 157.36452461 -128.67600746 155.32745875 -134.5625 152 C-135.29106201 151.60111572 -136.01962402 151.20223145 -136.77026367 150.79125977 C-139.14807282 149.48139653 -141.51268814 148.15009092 -143.875 146.8125 C-144.66036133 146.36970703 -145.44572266 145.92691406 -146.25488281 145.47070312 C-151.44767893 142.53646811 -156.62007999 139.56747205 -161.78808594 136.58984375 C-167.16554535 133.4936792 -172.54904001 130.40808128 -177.93441772 127.32571411 C-179.77653476 126.2705999 -181.61742991 125.21337733 -183.45825195 124.15600586 C-185.16307739 123.17966187 -185.16307739 123.17966187 -186.90234375 122.18359375 C-187.91031006 121.60536865 -188.91827637 121.02714355 -189.95678711 120.43139648 C-195.55790891 116.74988857 -195.55790891 116.74988857 -201.75 116.625 C-202.801875 117.2128125 -202.801875 117.2128125 -203.875 117.8125 C-204.194662 123.96315035 -203.00458312 129.31252174 -201.50756836 135.26049805 C-201.255466 136.2894368 -201.00336365 137.31837555 -200.74362183 138.37849426 C-199.90839991 141.77901919 -199.06168941 145.17657159 -198.21484375 148.57421875 C-197.62557178 150.9631924 -197.03700649 153.35234046 -196.44911194 155.74165344 C-194.89554987 162.04719488 -193.33219422 168.35026885 -191.7668457 174.65289307 C-190.20116671 180.96437379 -188.64500405 187.27819861 -187.08789062 193.59179688 C-181.39074433 216.67555889 -175.64164769 239.74590922 -169.875 262.8125 C-72.855 262.8125 24.165 262.8125 124.125 262.8125 C136.66233316 212.80458783 136.66233316 212.80458783 149.02246094 162.75268555 C149.78160352 159.64771251 150.54581997 156.544041 151.31347656 153.44116211 C152.28570084 149.5111811 153.2500921 145.57935772 154.20874023 141.64604378 C154.56323941 140.19699518 154.92039937 138.74859432 155.28051758 137.30093193 C155.77009041 135.33065771 156.24857689 133.35763877 156.7265625 131.38452148 C156.99807129 130.27850082 157.26958008 129.17248016 157.54931641 128.03294373 C158.16907858 124.56591908 158.22444001 121.32722157 158.125 117.8125 C156.02758903 116.43387035 156.02758903 116.43387035 153.125 115.8125 C150.4415967 116.83474887 148.27178647 117.88703879 145.8125 119.3125 C145.0788623 119.71903809 144.34522461 120.12557617 143.58935547 120.54443359 C141.08676422 121.94313788 138.60447123 123.37322665 136.125 124.8125 C135.23280762 125.32973633 134.34061523 125.84697266 133.42138672 126.37988281 C129.51963871 128.64813527 125.62297018 130.92487271 121.73120117 133.21020508 C114.32967455 137.5510421 106.89095122 141.8187666 99.40155029 146.00579834 C97.66874335 146.97552013 95.93906423 147.95082439 94.20947266 148.92626953 C77.9885437 157.95690573 77.9885437 157.95690573 69.125 155.8125 C64.28124014 153.10236295 61.44698686 149.96464233 58.54296875 145.3359375 C58.13155136 144.70200577 57.72013397 144.06807404 57.29624939 143.41493225 C55.95712368 141.34611074 54.63493657 139.26702065 53.3125 137.1875 C52.37798706 135.73759062 51.44226254 134.28846148 50.50537109 132.84008789 C48.6075368 129.90328652 46.71564926 126.96279372 44.82861328 124.01904297 C41.01053502 118.06878894 37.12841576 112.16104402 33.25 106.25 C28.0350945 98.27512174 22.82917243 90.29438486 17.625 82.3125 C15.12523385 78.47901411 12.62519092 74.64570886 10.125 70.8125 C9.42842285 69.74435059 8.7318457 68.67620117 8.01416016 67.57568359 C0.76863977 56.46826355 -6.47947533 45.36243386 -13.8125 34.3125 C-14.30258545 33.57088623 -14.7926709 32.82927246 -15.29760742 32.06518555 C-17.03037797 29.46368772 -18.658633 27.028867 -20.875 24.8125 C-24.70224631 24.37572986 -24.70224631 24.37572986 -26.375 26.11328125 Z " fill="#ffb638e8" transform="translate(278.875,81.1875)"/>
<path d="M0 0 C1.04729163 -0.00384115 2.09458325 -0.00768229 3.17361099 -0.01163983 C4.32806423 -0.01077335 5.48251748 -0.00990687 6.67195415 -0.00901413 C7.89534974 -0.01198525 9.11874533 -0.01495637 10.37921351 -0.01801753 C13.78133941 -0.02520604 17.18341482 -0.02787748 20.58554471 -0.028615 C24.25231342 -0.03046434 27.91907117 -0.03801106 31.58583355 -0.04475021 C39.60646261 -0.05833882 47.62708668 -0.06435903 55.64772534 -0.06876087 C60.65448726 -0.07152232 65.66124724 -0.07575948 70.66800785 -0.08026505 C84.5264556 -0.09245824 98.3849018 -0.10275756 112.2433548 -0.10614014 C113.13052344 -0.1063597 114.01769208 -0.10657927 114.93174462 -0.10680549 C116.26570563 -0.10713291 116.26570563 -0.10713291 117.62661535 -0.10746694 C119.42873085 -0.1079104 121.23084635 -0.10835697 123.03296185 -0.10880661 C123.92687591 -0.10902804 124.82078997 -0.10924947 125.74179234 -0.10947761 C140.22905725 -0.11342631 154.71627188 -0.13088231 169.20351736 -0.15416613 C184.07234648 -0.17787063 198.94115036 -0.19034157 213.80999869 -0.19150805 C222.16034157 -0.19242531 230.51061894 -0.19819022 238.86094379 -0.21632767 C245.97094459 -0.23171648 253.08085962 -0.23685634 260.1908739 -0.22858956 C263.81895508 -0.22467875 267.44686351 -0.2256335 271.07492352 -0.23964691 C275.00732569 -0.25469705 278.93948379 -0.24653207 282.87190533 -0.23606491 C284.01966641 -0.24412132 285.16742749 -0.25217772 286.34996921 -0.26047826 C292.76717217 -0.22039886 297.64615773 0.10663197 302.60693645 4.63142776 C306.56513886 9.71487166 307.61926746 13.73310286 306.9624052 20.13142776 C305.10472374 25.39485858 302.39448778 27.96565449 297.9624052 31.13142776 C294.89595505 32.16151068 292.05666039 32.25839434 288.83579063 32.26285553 C287.79409145 32.26669667 286.75239227 32.27053782 285.67912644 32.27449536 C284.53605005 32.27362888 283.39297366 32.2727624 282.2152586 32.27186966 C280.99988126 32.27484078 279.78450391 32.2778119 278.53229696 32.28087306 C275.15716404 32.28805373 271.78208202 32.29073241 268.40694511 32.29147053 C264.76744159 32.29332176 261.1279491 32.30086941 257.48845196 32.30760574 C249.52979647 32.32118634 241.57114602 32.32721324 233.61248088 32.3316164 C228.64339545 32.33437906 223.67431197 32.33861644 218.70522785 32.34312057 C204.94796623 32.35531246 191.19070616 32.36561221 177.43343925 32.36899567 C176.11276915 32.36932502 176.11276915 32.36932502 174.76541885 32.36966102 C173.44158802 32.36998843 173.44158802 32.36998843 172.09101313 32.37032247 C170.30261973 32.37076593 168.51422634 32.3712125 166.72583294 32.37166214 C165.83872792 32.37188357 164.95162289 32.372105 164.0376359 32.37233314 C149.66104091 32.37628177 135.28449658 32.39373814 120.90792116 32.41702166 C106.14866674 32.4407321 91.38943775 32.45319736 76.63016397 32.45436358 C68.34296109 32.45528047 60.05582425 32.46103633 51.76863956 32.4791832 C44.71249019 32.49457997 37.65642725 32.49970713 30.60026427 32.49144509 C27.00040544 32.48753719 23.40072072 32.48847493 19.80088329 32.50250244 C15.89734786 32.51757426 11.99405772 32.50937905 8.09050274 32.49892044 C6.95411852 32.50697685 5.81773429 32.51503325 4.64691418 32.52333379 C-2.01477074 32.48150575 -7.52233427 32.15801979 -12.7797823 27.63142776 C-16.63220838 22.53028426 -17.6897697 18.48409444 -17.0375948 12.13142776 C-15.17902652 6.86548433 -12.43445284 4.33747009 -8.0375948 1.13142776 C-5.05799879 0.1382291 -3.10972599 0.00427402 0 0 Z " fill="#ffb638e8" transform="translate(111.03759479522705,405.8685722351074)"/>
</svg>
